<mxfile host="app.diagrams.net" agent="Mozilla/5.0 (Windows NT 10.0; Win64; x64) AppleWebKit/537.36 (KHTML, like Gecko) Chrome/132.0.0.0 YaBrowser/25.2.0.0 Safari/537.36" version="26.1.1">
  <diagram name="Страница — 1" id="VBfxJaU67iYTGObWbU1W">
    <mxGraphModel dx="233" dy="554" grid="1" gridSize="10" guides="1" tooltips="1" connect="1" arrows="1" fold="1" page="1" pageScale="1" pageWidth="827" pageHeight="1169" math="0" shadow="0">
      <root>
        <mxCell id="0" />
        <mxCell id="1" parent="0" />
        <mxCell id="1yqpby41wUzeVOpwDQCK-2" value="0" style="ellipse;whiteSpace=wrap;html=1;aspect=fixed;fillColor=#dae8fc;strokeColor=#6c8ebf;" vertex="1" parent="1">
          <mxGeometry x="150" y="100" width="40" height="40" as="geometry" />
        </mxCell>
        <mxCell id="1yqpby41wUzeVOpwDQCK-3" value="1" style="ellipse;whiteSpace=wrap;html=1;aspect=fixed;fillColor=#dae8fc;strokeColor=#6c8ebf;" vertex="1" parent="1">
          <mxGeometry x="300" y="100" width="40" height="40" as="geometry" />
        </mxCell>
        <mxCell id="1yqpby41wUzeVOpwDQCK-4" value="2" style="ellipse;whiteSpace=wrap;html=1;aspect=fixed;fillColor=#dae8fc;strokeColor=#6c8ebf;" vertex="1" parent="1">
          <mxGeometry x="80" y="160" width="40" height="40" as="geometry" />
        </mxCell>
        <mxCell id="1yqpby41wUzeVOpwDQCK-5" value="3" style="ellipse;whiteSpace=wrap;html=1;aspect=fixed;fillColor=#dae8fc;strokeColor=#6c8ebf;" vertex="1" parent="1">
          <mxGeometry x="220" y="160" width="40" height="40" as="geometry" />
        </mxCell>
        <mxCell id="1yqpby41wUzeVOpwDQCK-6" value="4" style="ellipse;whiteSpace=wrap;html=1;aspect=fixed;fillColor=#dae8fc;strokeColor=#6c8ebf;" vertex="1" parent="1">
          <mxGeometry x="360" y="160" width="40" height="40" as="geometry" />
        </mxCell>
        <mxCell id="1yqpby41wUzeVOpwDQCK-7" value="5" style="ellipse;whiteSpace=wrap;html=1;aspect=fixed;fillColor=#dae8fc;strokeColor=#6c8ebf;" vertex="1" parent="1">
          <mxGeometry x="150" y="230" width="40" height="40" as="geometry" />
        </mxCell>
        <mxCell id="1yqpby41wUzeVOpwDQCK-8" value="6" style="ellipse;whiteSpace=wrap;html=1;aspect=fixed;fillColor=#dae8fc;strokeColor=#6c8ebf;" vertex="1" parent="1">
          <mxGeometry x="300" y="230" width="40" height="40" as="geometry" />
        </mxCell>
        <mxCell id="1yqpby41wUzeVOpwDQCK-9" value="" style="endArrow=classic;html=1;rounded=0;exitX=0;exitY=1;exitDx=0;exitDy=0;entryX=1;entryY=0;entryDx=0;entryDy=0;" edge="1" parent="1" source="1yqpby41wUzeVOpwDQCK-2" target="1yqpby41wUzeVOpwDQCK-4">
          <mxGeometry width="50" height="50" relative="1" as="geometry">
            <mxPoint x="380" y="320" as="sourcePoint" />
            <mxPoint x="440" y="270" as="targetPoint" />
          </mxGeometry>
        </mxCell>
        <mxCell id="1yqpby41wUzeVOpwDQCK-11" value="" style="endArrow=classic;html=1;rounded=0;exitX=1;exitY=1;exitDx=0;exitDy=0;entryX=0;entryY=0;entryDx=0;entryDy=0;" edge="1" parent="1" source="1yqpby41wUzeVOpwDQCK-4" target="1yqpby41wUzeVOpwDQCK-7">
          <mxGeometry width="50" height="50" relative="1" as="geometry">
            <mxPoint x="166" y="144" as="sourcePoint" />
            <mxPoint x="124" y="176" as="targetPoint" />
          </mxGeometry>
        </mxCell>
        <mxCell id="1yqpby41wUzeVOpwDQCK-12" value="" style="endArrow=classic;html=1;rounded=0;exitX=1;exitY=0.5;exitDx=0;exitDy=0;entryX=0;entryY=0.5;entryDx=0;entryDy=0;" edge="1" parent="1" source="1yqpby41wUzeVOpwDQCK-4" target="1yqpby41wUzeVOpwDQCK-5">
          <mxGeometry width="50" height="50" relative="1" as="geometry">
            <mxPoint x="176" y="154" as="sourcePoint" />
            <mxPoint x="134" y="186" as="targetPoint" />
          </mxGeometry>
        </mxCell>
        <mxCell id="1yqpby41wUzeVOpwDQCK-13" value="" style="endArrow=classic;html=1;rounded=0;exitX=0;exitY=1;exitDx=0;exitDy=0;entryX=1;entryY=0;entryDx=0;entryDy=0;" edge="1" parent="1" source="1yqpby41wUzeVOpwDQCK-5" target="1yqpby41wUzeVOpwDQCK-7">
          <mxGeometry width="50" height="50" relative="1" as="geometry">
            <mxPoint x="186" y="164" as="sourcePoint" />
            <mxPoint x="144" y="196" as="targetPoint" />
          </mxGeometry>
        </mxCell>
        <mxCell id="1yqpby41wUzeVOpwDQCK-14" value="" style="endArrow=classic;html=1;rounded=0;exitX=1;exitY=1;exitDx=0;exitDy=0;entryX=0;entryY=0;entryDx=0;entryDy=0;" edge="1" parent="1" source="1yqpby41wUzeVOpwDQCK-5" target="1yqpby41wUzeVOpwDQCK-8">
          <mxGeometry width="50" height="50" relative="1" as="geometry">
            <mxPoint x="196" y="174" as="sourcePoint" />
            <mxPoint x="154" y="206" as="targetPoint" />
          </mxGeometry>
        </mxCell>
        <mxCell id="1yqpby41wUzeVOpwDQCK-15" value="" style="endArrow=classic;html=1;rounded=0;exitX=1;exitY=0.5;exitDx=0;exitDy=0;entryX=0;entryY=0.5;entryDx=0;entryDy=0;" edge="1" parent="1" source="1yqpby41wUzeVOpwDQCK-7" target="1yqpby41wUzeVOpwDQCK-8">
          <mxGeometry width="50" height="50" relative="1" as="geometry">
            <mxPoint x="206" y="184" as="sourcePoint" />
            <mxPoint x="164" y="216" as="targetPoint" />
          </mxGeometry>
        </mxCell>
        <mxCell id="1yqpby41wUzeVOpwDQCK-16" value="" style="endArrow=classic;html=1;rounded=0;exitX=0;exitY=1;exitDx=0;exitDy=0;entryX=1;entryY=0;entryDx=0;entryDy=0;" edge="1" parent="1" source="1yqpby41wUzeVOpwDQCK-6" target="1yqpby41wUzeVOpwDQCK-8">
          <mxGeometry width="50" height="50" relative="1" as="geometry">
            <mxPoint x="216" y="194" as="sourcePoint" />
            <mxPoint x="174" y="226" as="targetPoint" />
          </mxGeometry>
        </mxCell>
        <mxCell id="1yqpby41wUzeVOpwDQCK-17" value="" style="endArrow=classic;html=1;rounded=0;exitX=1;exitY=0.5;exitDx=0;exitDy=0;entryX=0;entryY=0.5;entryDx=0;entryDy=0;" edge="1" parent="1" source="1yqpby41wUzeVOpwDQCK-5" target="1yqpby41wUzeVOpwDQCK-6">
          <mxGeometry width="50" height="50" relative="1" as="geometry">
            <mxPoint x="226" y="204" as="sourcePoint" />
            <mxPoint x="184" y="236" as="targetPoint" />
          </mxGeometry>
        </mxCell>
        <mxCell id="1yqpby41wUzeVOpwDQCK-18" value="" style="endArrow=classic;html=1;rounded=0;exitX=0;exitY=0;exitDx=0;exitDy=0;entryX=1;entryY=1;entryDx=0;entryDy=0;" edge="1" parent="1" source="1yqpby41wUzeVOpwDQCK-6" target="1yqpby41wUzeVOpwDQCK-3">
          <mxGeometry width="50" height="50" relative="1" as="geometry">
            <mxPoint x="236" y="214" as="sourcePoint" />
            <mxPoint x="194" y="246" as="targetPoint" />
          </mxGeometry>
        </mxCell>
        <mxCell id="1yqpby41wUzeVOpwDQCK-19" value="" style="endArrow=classic;html=1;rounded=0;exitX=1;exitY=0;exitDx=0;exitDy=0;entryX=0;entryY=0.75;entryDx=0;entryDy=0;entryPerimeter=0;" edge="1" parent="1" source="1yqpby41wUzeVOpwDQCK-5" target="1yqpby41wUzeVOpwDQCK-3">
          <mxGeometry width="50" height="50" relative="1" as="geometry">
            <mxPoint x="246" y="224" as="sourcePoint" />
            <mxPoint x="204" y="256" as="targetPoint" />
          </mxGeometry>
        </mxCell>
        <mxCell id="1yqpby41wUzeVOpwDQCK-20" value="1" style="text;html=1;align=center;verticalAlign=middle;resizable=0;points=[];autosize=1;strokeColor=none;fillColor=none;" vertex="1" parent="1">
          <mxGeometry x="110" y="120" width="30" height="30" as="geometry" />
        </mxCell>
      </root>
    </mxGraphModel>
  </diagram>
</mxfile>
